<svg xmlns="http://www.w3.org/2000/svg" width="21.652" height="23.649" viewBox="0 0 21.652 23.649">
  <g id="组_3977" data-name="组 3977" transform="translate(-752.85 -583.852)">
    <path id="减去_19" data-name="减去 19" d="M-16951.6-4332.9h-18.15l21.652-23.649v20.151A3.5,3.5,0,0,1-16951.6-4332.9Z" transform="translate(17722.6 4940.4)" fill="#a62929"/>
    <g id="组_3580" data-name="组 3580" transform="translate(540.47 304.046)">
      <path id="路径_243" data-name="路径 243" d="M225.566,490.423a.618.618,0,0,1-.4-.15L222,487.558a.62.62,0,0,1,.809-.941l3.159,2.715a.62.62,0,0,1-.4,1.091Z" transform="translate(0 -190.384)" fill="#fff"/>
      <path id="路径_244" data-name="路径 244" d="M432.177,300.04a.62.62,0,0,1-.481-1.012l4.754-5.845a.62.62,0,1,1,.963.783l-4.754,5.845A.62.62,0,0,1,432.177,300.04Z" transform="translate(-206.377)" fill="#fff"/>
    </g>
  </g>
</svg>
